<?xml version="1.0"?>
<svg xmlns="http://www.w3.org/2000/svg" xmlns:xlink="http://www.w3.org/1999/xlink" width="770" height="166">
<rect width="100%" height="100%" fill="white"/>
<path d="M 10 14 C 5.5 14, 5.5 23, 10 23" fill="#009CA2" opacity="0.9" />
<rect x="10" y="14" height="9" width="288.46153846153845" fill="#009CA2" stroke="#009CA2" stroke-width="0" opacity="0.9" />
<rect x="10" y="15.62" height="3" width="288.46153846153845" fill="#F4EDF2" opacity="0.25" />
<rect x="298.46153846153845" y="14" height="9" width="173.07692307692307" fill="#1383C6" stroke="#1383C6" stroke-width="0" opacity="0.9" />
<rect x="298.46153846153845" y="15.62" height="3" width="173.07692307692307" fill="#F4EDF2" opacity="0.25" />
<rect x="471.53846153846155" y="14" height="9" width="288.46153846153845" fill="#009CA2" stroke="#009CA2" stroke-width="0" opacity="0.9" />
<rect x="471.53846153846155" y="15.62" height="3" width="288.46153846153845" fill="#F4EDF2" opacity="0.25" />
<path d="M 760 14 C 764.5 14, 764.5 23, 760 23" fill="#009CA2" opacity="0.9" />
<line x1="298.46153846153845" y1="14" x2="298.46153846153845" y2="23" stroke="#000000" stroke-width="1.5" />
<line x1="471.53846153846155" y1="14" x2="471.53846153846155" y2="23" stroke="#000000" stroke-width="1.5" />
<line x1="10" y1="14" x2="760" y2="14" stroke="#000000" stroke-width="1.5" />
<line x1="10" y1="23" x2="760" y2="23" stroke="#000000" stroke-width="1.5" />
<path d="M 10 14 C 5.5 14, 5.5 23, 10 23" stroke="#000000" stroke-width="1.5" fill="none" opacity="0.9" />
<path d="M 760 14 C 764.5 14, 764.5 23, 760 23" stroke="#000000" stroke-width="1.5" fill="none" opacity="0.9" />
<line x1="298.46153846153845" y1="11.75" x2="298.46153846153845" y2="16.25" stroke="#000000" stroke-width="1.5" />
<text x="298.46153846153845" y="9.75" font-family="monospace" font-weight="bold" text-anchor="middle" font-size="10px" >0</text>
<line x1="333.0769230769231" y1="11.75" x2="333.0769230769231" y2="16.25" stroke="#000000" stroke-width="1.5" />
<line x1="367.6923076923077" y1="11.75" x2="367.6923076923077" y2="16.25" stroke="#000000" stroke-width="1.5" />
<line x1="402.3076923076923" y1="11.75" x2="402.3076923076923" y2="16.25" stroke="#000000" stroke-width="1.5" />
<line x1="436.9230769230769" y1="11.75" x2="436.9230769230769" y2="16.25" stroke="#000000" stroke-width="1.5" />
<path d="M 10 26 C 5.5 26, 5.5 35, 10 35" fill="#009CA2" opacity="0.9" />
<rect x="10" y="26" height="9" width="288.46153846153845" fill="#009CA2" stroke="#009CA2" stroke-width="0" opacity="0.9" />
<rect x="10" y="27.62" height="3" width="288.46153846153845" fill="#F4EDF2" opacity="0.25" />
<rect x="298.46153846153845" y="26" height="9" width="173.07692307692307" fill="#1383C6" stroke="#1383C6" stroke-width="0" opacity="0.9" />
<rect x="298.46153846153845" y="27.62" height="3" width="173.07692307692307" fill="#F4EDF2" opacity="0.25" />
<rect x="471.53846153846155" y="26" height="9" width="288.46153846153845" fill="#009CA2" stroke="#009CA2" stroke-width="0" opacity="0.9" />
<rect x="471.53846153846155" y="27.62" height="3" width="288.46153846153845" fill="#F4EDF2" opacity="0.25" />
<path d="M 760 26 C 764.5 26, 764.5 35, 760 35" fill="#009CA2" opacity="0.9" />
<path d="M 10 37 C 5.5 37, 5.5 46, 10 46" fill="#009CA2" opacity="0.9" />
<rect x="10" y="37" height="9" width="288.46153846153845" fill="#009CA2" stroke="#009CA2" stroke-width="0" opacity="0.9" />
<rect x="10" y="38.62" height="3" width="288.46153846153845" fill="#F4EDF2" opacity="0.25" />
<rect x="298.46153846153845" y="37" height="9" width="173.07692307692307" fill="#1383C6" stroke="#1383C6" stroke-width="0" opacity="0.9" />
<rect x="298.46153846153845" y="38.62" height="3" width="173.07692307692307" fill="#F4EDF2" opacity="0.25" />
<rect x="471.53846153846155" y="37" height="9" width="288.46153846153845" fill="#009CA2" stroke="#009CA2" stroke-width="0" opacity="0.9" />
<rect x="471.53846153846155" y="38.62" height="3" width="288.46153846153845" fill="#F4EDF2" opacity="0.25" />
<path d="M 760 37 C 764.5 37, 764.5 46, 760 46" fill="#009CA2" opacity="0.9" />
<path d="M 10 48 C 5.5 48, 5.5 57, 10 57" fill="#009CA2" opacity="0.9" />
<rect x="10" y="48" height="9" width="288.46153846153845" fill="#009CA2" stroke="#009CA2" stroke-width="0" opacity="0.9" />
<rect x="10" y="49.62" height="3" width="288.46153846153845" fill="#F4EDF2" opacity="0.25" />
<rect x="298.46153846153845" y="48" height="9" width="173.07692307692307" fill="#1383C6" stroke="#1383C6" stroke-width="0" opacity="0.9" />
<rect x="298.46153846153845" y="49.62" height="3" width="173.07692307692307" fill="#F4EDF2" opacity="0.25" />
<rect x="471.53846153846155" y="48" height="9" width="288.46153846153845" fill="#009CA2" stroke="#009CA2" stroke-width="0" opacity="0.9" />
<rect x="471.53846153846155" y="49.62" height="3" width="288.46153846153845" fill="#F4EDF2" opacity="0.25" />
<path d="M 760 48 C 764.5 48, 764.5 57, 760 57" fill="#009CA2" opacity="0.9" />
<path d="M 10 59 C 5.5 59, 5.5 68, 10 68" fill="#009CA2" opacity="0.9" />
<rect x="10" y="59" height="9" width="288.46153846153845" fill="#009CA2" stroke="#009CA2" stroke-width="0" opacity="0.9" />
<rect x="10" y="60.62" height="3" width="288.46153846153845" fill="#F4EDF2" opacity="0.25" />
<rect x="298.46153846153845" y="59" height="9" width="173.07692307692307" fill="#1383C6" stroke="#1383C6" stroke-width="0" opacity="0.9" />
<rect x="298.46153846153845" y="60.62" height="3" width="173.07692307692307" fill="#F4EDF2" opacity="0.25" />
<rect x="471.53846153846155" y="59" height="9" width="288.46153846153845" fill="#009CA2" stroke="#009CA2" stroke-width="0" opacity="0.9" />
<rect x="471.53846153846155" y="60.62" height="3" width="288.46153846153845" fill="#F4EDF2" opacity="0.25" />
<path d="M 760 59 C 764.5 59, 764.5 68, 760 68" fill="#009CA2" opacity="0.9" />
<path d="M 10 70 C 5.5 70, 5.5 79, 10 79" fill="#009CA2" opacity="0.9" />
<rect x="10" y="70" height="9" width="288.46153846153845" fill="#009CA2" stroke="#009CA2" stroke-width="0" opacity="0.9" />
<rect x="10" y="71.62" height="3" width="288.46153846153845" fill="#F4EDF2" opacity="0.25" />
<rect x="298.46153846153845" y="70" height="9" width="173.07692307692307" fill="#1383C6" stroke="#1383C6" stroke-width="0" opacity="0.9" />
<rect x="298.46153846153845" y="71.62" height="3" width="173.07692307692307" fill="#F4EDF2" opacity="0.25" />
<rect x="471.53846153846155" y="70" height="9" width="288.46153846153845" fill="#009CA2" stroke="#009CA2" stroke-width="0" opacity="0.9" />
<rect x="471.53846153846155" y="71.62" height="3" width="288.46153846153845" fill="#F4EDF2" opacity="0.25" />
<path d="M 760 70 C 764.5 70, 764.5 79, 760 79" fill="#009CA2" opacity="0.9" />
<path d="M 10 101 C 5.5 101, 5.5 110, 10 110" fill="#009CA2" opacity="0.9" />
<rect x="10" y="101" height="9" width="288.46153846153845" fill="#009CA2" stroke="#009CA2" stroke-width="0" opacity="0.9" />
<rect x="10" y="102.62" height="3" width="288.46153846153845" fill="#F4EDF2" opacity="0.25" />
<rect x="298.46153846153845" y="101" height="9" width="138.46153846153845" fill="#1383C6" stroke="#1383C6" stroke-width="0" opacity="0.9" />
<rect x="298.46153846153845" y="102.62" height="3" width="138.46153846153845" fill="#F4EDF2" opacity="0.25" />
<rect x="436.9230769230769" y="101" height="9" width="288.46153846153845" fill="#009CA2" stroke="#009CA2" stroke-width="0" opacity="0.9" />
<rect x="436.9230769230769" y="102.62" height="3" width="288.46153846153845" fill="#F4EDF2" opacity="0.25" />
<path d="M 725.3846153846154 101 C 729.8846153846154 101, 729.8846153846154 110, 725.3846153846154 110" fill="#009CA2" opacity="0.9" />
<line x1="298.46153846153845" y1="101" x2="298.46153846153845" y2="110" stroke="#000000" stroke-width="1.5" />
<line x1="436.9230769230769" y1="101" x2="436.9230769230769" y2="110" stroke="#000000" stroke-width="1.5" />
<line x1="10" y1="101" x2="725.3846153846154" y2="101" stroke="#000000" stroke-width="1.5" />
<line x1="10" y1="110" x2="725.3846153846154" y2="110" stroke="#000000" stroke-width="1.5" />
<path d="M 10 101 C 5.5 101, 5.5 110, 10 110" stroke="#000000" stroke-width="1.5" fill="none" opacity="0.9" />
<path d="M 725.3846153846154 101 C 729.8846153846154 101, 729.8846153846154 110, 725.3846153846154 110" stroke="#000000" stroke-width="1.5" fill="none" opacity="0.9" />
<line x1="298.46153846153845" y1="98.75" x2="298.46153846153845" y2="103.25" stroke="#000000" stroke-width="1.5" />
<text x="298.46153846153845" y="96.75" font-family="monospace" font-weight="bold" text-anchor="middle" font-size="10px" >0</text>
<line x1="333.0769230769231" y1="98.75" x2="333.0769230769231" y2="103.25" stroke="#000000" stroke-width="1.5" />
<line x1="367.6923076923077" y1="98.75" x2="367.6923076923077" y2="103.25" stroke="#000000" stroke-width="1.5" />
<line x1="402.3076923076923" y1="98.75" x2="402.3076923076923" y2="103.25" stroke="#000000" stroke-width="1.5" />
<path d="M 10 113 C 5.5 113, 5.5 122, 10 122" fill="#009CA2" opacity="0.9" />
<rect x="10" y="113" height="9" width="288.46153846153845" fill="#009CA2" stroke="#009CA2" stroke-width="0" opacity="0.9" />
<rect x="10" y="114.62" height="3" width="288.46153846153845" fill="#F4EDF2" opacity="0.25" />
<rect x="298.46153846153845" y="113" height="9" width="103.84615384615384" fill="#1383C6" stroke="#1383C6" stroke-width="0" opacity="0.9" />
<rect x="298.46153846153845" y="114.62" height="3" width="103.84615384615384" fill="#F4EDF2" opacity="0.25" />
<line x1="402.30769230769226" y1="117.5" x2="408.07692307692304" y2="117.5" stroke="#1383C6" stroke-width="1.5" />
<rect x="408.07692307692304" y="113" height="9" width="28.846153846153847" fill="#1383C6" stroke="#1383C6" stroke-width="0" opacity="0.9" />
<rect x="408.07692307692304" y="114.62" height="3" width="28.846153846153847" fill="#F4EDF2" opacity="0.25" />
<rect x="436.9230769230769" y="113" height="9" width="248.07692307692307" fill="#009CA2" stroke="#009CA2" stroke-width="0" opacity="0.9" />
<rect x="436.9230769230769" y="114.62" height="3" width="248.07692307692307" fill="#F4EDF2" opacity="0.25" />
<rect x="685" y="113" height="9" width="5.769230769230769" fill="#BABABA" stroke="#BABABA" stroke-width="0" opacity="0.9" />
<rect x="685" y="114.62" height="3" width="5.769230769230769" fill="#F4EDF2" opacity="0.25" />
<rect x="690.7692307692307" y="113" height="9" width="34.61538461538461" fill="#009CA2" stroke="#009CA2" stroke-width="0" opacity="0.9" />
<rect x="690.7692307692307" y="114.62" height="3" width="34.61538461538461" fill="#F4EDF2" opacity="0.25" />
<path d="M 725.3846153846154 113 C 729.8846153846154 113, 729.8846153846154 122, 725.3846153846154 122" fill="#009CA2" opacity="0.9" />
<path d="M 10 124 C 5.5 124, 5.5 133, 10 133" fill="#009CA2" opacity="0.9" />
<rect x="10" y="124" height="9" width="288.46153846153845" fill="#009CA2" stroke="#009CA2" stroke-width="0" opacity="0.9" />
<rect x="10" y="125.62" height="3" width="288.46153846153845" fill="#F4EDF2" opacity="0.25" />
<rect x="298.46153846153845" y="124" height="9" width="138.46153846153845" fill="#1383C6" stroke="#1383C6" stroke-width="0" opacity="0.9" />
<rect x="298.46153846153845" y="125.62" height="3" width="138.46153846153845" fill="#F4EDF2" opacity="0.25" />
<rect x="436.9230769230769" y="124" height="9" width="28.846153846153847" fill="#009CA2" stroke="#009CA2" stroke-width="0" opacity="0.9" />
<rect x="436.9230769230769" y="125.62" height="3" width="28.846153846153847" fill="#F4EDF2" opacity="0.25" />
<rect x="465.7692307692308" y="124" height="9" width="219.23076923076923" fill="#009CA2" stroke="#009CA2" stroke-width="0" opacity="0.9" />
<rect x="465.7692307692308" y="125.62" height="3" width="219.23076923076923" fill="#F4EDF2" opacity="0.25" />
<rect x="685" y="124" height="9" width="5.769230769230769" fill="#BABABA" stroke="#BABABA" stroke-width="0" opacity="0.9" />
<rect x="685" y="125.62" height="3" width="5.769230769230769" fill="#F4EDF2" opacity="0.25" />
<rect x="690.7692307692307" y="124" height="9" width="28.846153846153847" fill="#009CA2" stroke="#009CA2" stroke-width="0" opacity="0.9" />
<rect x="690.7692307692307" y="125.62" height="3" width="28.846153846153847" fill="#F4EDF2" opacity="0.25" />
<line x1="719.6153846153845" y1="128.5" x2="725.3846153846152" y2="128.5" stroke="#009CA2" stroke-width="1.5" />
<path d="M 725.3846153846152 124 C 729.8846153846152 124, 729.8846153846152 133, 725.3846153846152 133" fill="#009CA2" opacity="0.9" />
<line x1="465.7692307692308" y1="124" x2="465.7692307692308" y2="133" stroke="#000000" stroke-width="2" />
<path d="M 10 135 C 5.5 135, 5.5 144, 10 144" fill="#009CA2" opacity="0.9" />
<rect x="10" y="135" height="9" width="288.46153846153845" fill="#009CA2" stroke="#009CA2" stroke-width="0" opacity="0.9" />
<rect x="10" y="136.62" height="3" width="288.46153846153845" fill="#F4EDF2" opacity="0.25" />
<rect x="298.46153846153845" y="135" height="9" width="138.46153846153845" fill="#1383C6" stroke="#1383C6" stroke-width="0" opacity="0.9" />
<rect x="298.46153846153845" y="136.62" height="3" width="138.46153846153845" fill="#F4EDF2" opacity="0.25" />
<rect x="436.9230769230769" y="135" height="9" width="248.07692307692307" fill="#009CA2" stroke="#009CA2" stroke-width="0" opacity="0.9" />
<rect x="436.9230769230769" y="136.62" height="3" width="248.07692307692307" fill="#F4EDF2" opacity="0.25" />
<rect x="685" y="135" height="9" width="5.769230769230769" fill="#BABABA" stroke="#BABABA" stroke-width="0" opacity="0.9" />
<rect x="685" y="136.62" height="3" width="5.769230769230769" fill="#F4EDF2" opacity="0.25" />
<rect x="690.7692307692307" y="135" height="9" width="34.61538461538461" fill="#009CA2" stroke="#009CA2" stroke-width="0" opacity="0.9" />
<rect x="690.7692307692307" y="136.62" height="3" width="34.61538461538461" fill="#F4EDF2" opacity="0.25" />
<path d="M 725.3846153846154 135 C 729.8846153846154 135, 729.8846153846154 144, 725.3846153846154 144" fill="#009CA2" opacity="0.9" />
<rect x="10" y="150" height="12" width="12" fill="#1383C6" stroke="#1383C6" stroke-width="0" opacity="0.9" />
<text x="24" y="161" font-family="monospace" font-weight="bold" font-size="14px" >TTTTTA</text>
</svg>
